<svg width="408" height="55" viewBox="0 0 408 55" fill="none" xmlns="http://www.w3.org/2000/svg">
<path d="M10.309 17.9031C10.5272 19.9767 11.2253 23.1322 12.2289 26.3779C13.1452 29.4433 13.0143 30.435 10.9199 34.7626L9 38.7746L12.5343 38.9098C14.6288 39 16.4614 38.8197 16.985 38.5492C17.465 38.2337 18.8176 36.8362 19.9957 35.3486L22.1338 32.689H43.3399L44.998 34.7626C48.6196 39.3606 48.096 39.0451 52.4594 38.9098L56.4301 38.7746L54.4229 34.4921C52.154 29.6236 52.1103 30.8858 55.1211 18.8948C55.8628 16.0098 55.8628 16.0098 52.6776 16.0098H49.7105L48.4014 17.9482C47.7033 18.985 46.6124 20.7431 46.0452 21.87C45.478 22.997 44.4744 24.8903 43.8199 26.1525L42.6418 28.4065H22.7447L21.9593 27.0541C21.5229 26.2878 20.563 24.4395 19.8212 22.8618C19.0358 21.3291 17.8577 19.3005 17.1595 18.444C16.4614 17.5425 16.0251 16.6409 16.156 16.4155C16.2869 16.1901 14.9778 16.0098 13.2761 16.0098H10.1345L10.309 17.9031ZM69.5639 16.4155C69.5639 16.686 68.9966 17.7228 68.2985 18.8047C66.6404 21.3291 62.5825 29.5334 62.5825 30.3449C62.5825 31.0661 64.9823 34.402 67.4695 37.1067L69.2148 39H109.183L111.278 36.4305C114.507 32.5537 115.38 31.2464 115.38 30.2547C115.38 28.8573 110.798 19.7513 109.227 17.9932C108.791 17.4974 108.398 16.8212 108.398 16.5507C108.398 16.1901 107.394 16.0098 105.3 16.0098H102.158L102.507 17.6777C103.249 21.6897 103.904 24.5748 104.995 28.6769C105.387 30.0744 105.256 30.5702 104.122 32.734L102.857 35.1683L89.4173 35.3035C80.2542 35.3486 75.8035 35.2585 75.4108 34.8978C74.4945 34.0864 73.0546 30.9309 73.0546 29.6236C73.0546 28.9474 73.3164 27.5049 73.6655 26.3779C74.6691 23.1322 75.3672 19.9767 75.5854 17.9031L75.7599 16.0098H72.6619C70.9602 16.0098 69.5639 16.1901 69.5639 16.4155ZM122.448 18.1285L122.579 20.2923L139.814 20.4275C149.283 20.4726 157.312 20.6078 157.617 20.7431C158.228 20.9684 157.574 21.9151 153.821 26.3779L152.119 28.4065L137.327 28.6319C123.495 28.8573 122.579 28.9023 122.448 29.6687C122.361 30.1195 122.405 30.976 122.535 31.6071L122.797 32.689H152.643L155.479 34.6724C161.413 38.7295 162.111 39 166.562 39H170.576L168.613 37.0616C167.522 36.0248 165.602 34.2667 164.337 33.1848C163.115 32.1029 162.068 30.8858 162.068 30.4801C162.068 30.0744 162.853 28.136 163.857 26.1525C164.86 24.169 166.213 21.4192 166.911 20.0218C169.093 15.6041 171.275 16.0098 145.225 16.0098H122.317L122.448 18.1285ZM181.703 16.9113C181.703 17.4072 181.485 17.8129 181.267 17.8129C181.005 17.8129 180.612 18.2637 180.35 18.8047C180.132 19.3907 179.26 21.0586 178.431 22.5462C175.812 27.4147 175.027 29.2179 175.027 30.4801C175.027 31.3366 175.856 32.734 178.038 35.3035L181.049 38.9549H185.107C188.815 39 189.121 38.9549 188.772 38.1886C187.114 34.7175 186.59 33.4102 186.765 33.0496C186.896 32.8693 193.441 32.689 201.382 32.689C217.701 32.689 216.741 32.4185 214.647 36.4756C214.036 37.6476 213.556 38.6844 213.556 38.8197C213.556 38.9098 215.301 39 217.439 39H221.366L224.421 35.3035C226.646 32.6439 227.519 31.2014 227.519 30.2998C227.519 28.7671 222.763 19.2554 221.104 17.4523C220.799 17.1367 220.537 16.6409 220.537 16.4155C220.537 16.1901 212.77 16.0098 201.12 16.0098C182.008 16.0098 181.703 16.0098 181.703 16.9113ZM214.778 20.8783C215.345 21.284 216.61 25.3862 216.741 27.2795L216.828 28.4065H185.848L185.936 27.2795C186.066 25.3862 187.332 21.284 187.899 20.8783C188.641 20.4275 214.036 20.4275 214.778 20.8783ZM244.536 16.686C244.536 17.0917 244.056 17.858 243.489 18.3989C241.438 20.4275 234.369 28.9023 234.064 29.7588C233.889 30.2547 233.846 30.9309 233.933 31.2464C234.151 31.7423 241.612 37.0616 244.056 38.414C244.841 38.8648 249.074 39 262.862 38.9098L280.665 38.7746L279.923 37.1968L279.225 35.6191L264.389 35.3937C247.939 35.1232 248.856 35.3035 245.758 31.9226L244.536 30.6153L246.543 26.5582C249.859 19.9316 248.027 20.5627 264.564 20.4275L278.745 20.2923L279.749 18.7596C281.625 15.8745 282.541 16.0098 262.644 16.0098C246.587 16.0098 244.536 16.0999 244.536 16.686ZM293.842 16.5056C293.842 16.7761 293.362 17.6326 292.795 18.3989C291.661 19.9767 289.61 23.7183 287.646 27.8655L286.381 30.4801L288.083 32.8242C288.999 34.1315 290.526 36.0248 291.442 37.0616L293.1 39H296.984C299.078 39 300.824 38.8197 300.824 38.5943C300.824 38.414 300.256 37.1067 299.558 35.7543C298.816 34.3569 298.38 33.1397 298.511 32.9594C299.035 32.4185 327.877 32.6439 327.877 33.1848C327.877 33.4553 327.397 34.6724 326.786 35.9346C326.175 37.1518 325.695 38.3689 325.695 38.5943C325.695 38.8197 327.397 39 329.491 39H333.244L334.727 37.287C337.258 34.447 339.658 31.0661 339.658 30.3449C339.658 29.308 335.513 21.1037 333.68 18.3989C333.113 17.6326 332.676 16.7761 332.676 16.5056C332.676 16.145 327.048 16.0098 313.259 16.0098C299.776 16.0098 293.842 16.145 293.842 16.5056ZM327.44 22.411C327.877 23.4929 328.313 25.2509 328.4 26.3779L328.531 28.4065H297.987L298.118 26.423C298.162 25.296 298.598 23.5379 299.078 22.456L299.907 20.5177H326.611L327.44 22.411ZM336.167 16.4155C336.167 16.6409 336.865 18.2637 337.738 20.0218C338.872 22.3208 339.527 23.2224 340.138 23.2224C341.054 23.2224 346.639 17.4974 346.639 16.5507C346.639 16.145 345.287 16.0098 341.403 16.0098C338.523 16.0098 336.167 16.1901 336.167 16.4155ZM352.312 16.5056C352.312 16.8212 351.395 18.1736 350.261 19.5259C346.421 24.169 346.116 24.6649 346.421 26.3779C346.596 27.2344 346.901 28.1811 347.119 28.4515C347.337 28.722 348.297 30.5252 349.301 32.5086C350.261 34.447 351.57 36.7461 352.181 37.5124C353.184 38.9549 353.315 39 356.544 39C359.511 39 359.773 38.9098 359.511 38.2337C359.337 37.7829 358.988 36.6108 358.77 35.6191C358.551 34.6273 358.028 32.8693 357.679 31.6972C356.631 28.2261 356.719 24.2141 357.94 22.1856L358.944 20.5177H372.296C379.67 20.5177 385.91 20.698 386.128 20.8783C387.175 21.5996 388.528 24.71 388.528 26.2878C388.528 27.1893 388.266 28.8573 387.917 29.9842C387.044 32.7791 386.303 35.7994 386.041 37.5124L385.823 39H388.833C392.586 39 392.717 38.8648 395.553 33.1397C396.12 32.0128 397.08 30.1195 397.778 28.9474C398.433 27.7754 399 26.3328 399 25.7468C399 24.8903 395.553 20.1119 393.022 17.4523C392.717 17.1367 392.455 16.6409 392.455 16.4155C392.455 16.1901 384.426 16.0098 372.383 16.0098C357.635 16.0098 352.312 16.145 352.312 16.5056Z" fill="black" style="fill:black;fill-opacity:1;"/>
</svg>
