<svg width="408" height="55" viewBox="0 0 408 55" fill="none" xmlns="http://www.w3.org/2000/svg">
<path d="M359.855 32.1564H342.364L352.73 16.3295H370.222L359.855 32.1564ZM389.97 2.75336L382.585 10.8278L377.103 12.3838H344.341L331.39 32.1564L334.758 36.2439H368.151L379.866 18.3589L386.709 13.3169L389.97 2.75336ZM338.539 12.3838H284.867L296.516 16.3298H310.749L300.382 32.1566L293.29 36.2441H308.679L321.723 16.3297H335.955L338.539 12.3838ZM82.0429 12.3838H38.0631L34.8839 11.3475L34.2672 2.70416L29.9074 13.3172L35.0828 16.33H68.4842L65.8828 20.3015H37.4181L26.9757 36.2444H37.9498L44.49 26.2593L53.2 26.3126L61.4861 36.2444H72.4602L64.2415 26.2702L72.9207 26.3094L82.0429 12.3838ZM159.163 12.3838L135.494 30.744L133.504 12.3838H87.8436L74.8928 32.1564L78.2607 36.2438H108.92L116.013 32.1564H85.8669L89.6969 26.3089H107.188L111.123 20.3011H93.6323L96.2339 16.3296H124.699L126.861 36.244H138.191L168.629 12.3838L159.163 12.3838ZM202.893 12.3841L189.942 32.1567H172.451L185.402 12.3841H174.428L161.477 32.1567L164.845 36.2446H204.284L200.916 32.1567L213.867 12.3841H202.893ZM257.601 16.3297L254.349 12.3836H220.747L207.796 32.1562L211.164 36.2437H241.403L248.495 32.1562H218.77L222.599 26.3087H240.09L244.025 20.301H226.534L229.135 16.3295L257.601 16.3297ZM267.192 32.1565L280.143 12.3839H260.15L263.402 16.3295H266.584L256.218 32.1564L249.126 36.2438H285.984L293.077 32.1564L267.192 32.1565Z" fill="black" style="fill:black;fill-opacity:1;"/>
<path d="M140.354 46.286L132.755 52.2934H25.5985L18 46.286H140.354Z" fill="#009246" stroke="black" style="fill:#009246;fill:color(display-p3 0.0000 0.5725 0.2745);fill-opacity:1;stroke:black;stroke-opacity:1;" stroke-width="0.2"/>
<path d="M141.258 52.2958L148.857 46.2885H259.143L266.743 52.2958H141.258Z" fill="#F1F2F1" stroke="black" style="fill:#F1F2F1;fill:color(display-p3 0.9451 0.9490 0.9451);fill-opacity:1;stroke:black;stroke-opacity:1;" stroke-width="0.2"/>
<path d="M390 46.286L382.401 52.2934H275.245L267.646 46.286H390Z" fill="#CE2B37" stroke="black" style="fill:#CE2B37;fill:color(display-p3 0.8078 0.1686 0.2157);fill-opacity:1;stroke:black;stroke-opacity:1;" stroke-width="0.2"/>
</svg>
