<svg width="408" height="55" viewBox="0 0 408 55" fill="none" xmlns="http://www.w3.org/2000/svg">
<path d="M93.5159 24.4267L93.5671 32.8796L95.1278 33.8829C97.021 35.1371 97.2257 35.2625 99.4004 36.5919C100.373 37.1939 101.447 37.8711 101.831 38.0969C103.34 39.05 103.494 39.0751 118.359 38.9999L132.967 38.9246L134.835 37.7206C135.858 37.0685 136.728 36.5417 136.805 36.5417C136.856 36.5417 137.649 36.0401 138.57 35.413C139.517 34.7859 140.336 34.2843 140.413 34.2843C140.489 34.2843 141.027 33.9331 141.564 33.5067L142.562 32.7291L142.536 24.8029C142.536 20.4134 142.434 16.6259 142.306 16.3499C142.127 15.9235 142.076 15.9235 142.076 16.2747C142.05 16.6509 141.231 17.2278 138.008 19.1091C136.473 20.0121 132.942 22.3698 132.788 22.5956C132.686 22.7461 132.584 25.1039 132.584 27.8379V32.7793L118.077 32.7291L103.545 32.6539L103.417 27.5369L103.289 22.3949L100.987 20.9652C99.733 20.1625 97.6095 18.8582 96.3302 18.0807C95.0254 17.3031 93.9509 16.5004 93.9509 16.3249C93.9509 16.1242 93.8485 15.9737 93.695 15.9737C93.5415 15.9737 93.4903 19.1341 93.5159 24.4267ZM151.26 16.3249C151.26 16.5004 152.079 17.1526 153.077 17.7546C154.075 18.3566 155.149 19.0338 155.482 19.2345C155.814 19.4351 157.119 20.2378 158.347 20.9903L160.599 22.3698H179.787C194.447 22.3698 198.976 22.2946 198.976 22.0689C198.976 21.7929 197.364 20.7144 192.528 17.7797C191.505 17.1526 190.661 16.5004 190.661 16.2998C190.661 16.0239 187.309 15.9737 170.961 15.9737C154.356 15.9737 151.26 16.0239 151.26 16.3249ZM257.002 16.2496C257.027 16.4001 256.183 17.0773 255.134 17.7295C252.755 19.2345 249.889 21.0405 249.301 21.3665C247.638 22.3197 247.74 21.9184 247.663 27.5369L247.587 32.6539H218.42L218.292 27.5871C218.139 21.818 218.446 22.5705 215.401 20.6893C214.454 20.0873 213.457 19.4853 213.226 19.3599C212.996 19.2094 211.947 18.5572 210.924 17.9051C209.9 17.2529 208.903 16.7262 208.698 16.7262C208.365 16.7262 208.314 17.7546 208.365 24.8029L208.442 32.8796L210.003 33.8829C210.847 34.4598 211.768 35.0367 212.049 35.2123C213.508 36.1153 216.117 37.7206 216.706 38.0969C218.215 39.05 218.369 39.0751 233.234 38.9999L247.842 38.9246L250.401 37.3193C251.808 36.4414 253.778 35.2123 254.75 34.5853C257.999 32.5535 257.692 33.5569 257.692 25.0036C257.692 17.6543 257.59 15.9737 257.155 15.9737C257.027 15.9737 256.951 16.0991 257.002 16.2496ZM275.09 16.3499C275.09 16.5506 274.322 17.1777 273.376 17.7295C272.404 18.3064 270.766 19.3097 269.717 20.0121C268.668 20.6893 267.543 21.3665 267.21 21.4919C266.877 21.6424 266.647 21.8933 266.724 22.0689C266.877 22.5203 304.64 22.6207 305.459 22.1692C305.766 22.0187 307.122 21.191 308.478 20.3632C309.808 19.5355 311.113 18.7328 311.369 18.6074C313.518 17.3282 314.49 16.6259 314.49 16.3249C314.49 16.0239 311.599 15.9737 294.79 15.9737C277.725 15.9737 275.09 16.0239 275.09 16.3499ZM158.68 25.7561C154.228 28.5904 152.386 29.7192 151.951 29.8697C151.695 29.9449 151.516 30.1707 151.567 30.3462C151.67 30.572 154.535 30.6723 164.334 30.7726C171.293 30.8479 176.973 30.9231 176.999 30.9733C177.024 31.0486 182.576 35.0869 183.625 35.7892C184.06 36.0651 185.211 36.8929 186.183 37.6203L187.974 38.9246H194.371C199.104 38.9246 200.767 38.8494 200.767 38.6236C200.767 38.3728 199.18 37.0935 198.029 36.4163C197.006 35.8394 190.405 30.9482 190.405 30.7726C190.405 30.5469 191.275 29.7693 191.531 29.7693C191.633 29.7693 192.528 29.2426 193.552 28.5904C194.575 27.9634 196.161 26.9349 197.108 26.333C198.055 25.756 198.95 25.2544 199.104 25.2544C199.283 25.2544 199.36 25.1039 199.308 24.9283C199.206 24.7026 195.061 24.6273 179.89 24.5772L160.599 24.527L158.68 25.7561ZM266.545 24.7276C266.468 24.8531 267.184 25.43 268.131 25.9818C269.078 26.5587 270.715 27.5871 271.764 28.2894C272.813 28.9667 273.913 29.6439 274.195 29.7693C274.476 29.9198 274.988 30.1957 275.346 30.3964C275.883 30.7225 278.8 30.7476 295.02 30.6974C309.987 30.6723 314.081 30.572 314.183 30.3211C314.234 30.1707 314.055 29.9449 313.8 29.8195C313.544 29.7192 312.188 28.9416 310.781 28.0637C309.373 27.1858 307.992 26.333 307.736 26.1825C307.455 26.0069 306.764 25.5805 306.227 25.1791L305.203 24.5019H285.938C274.962 24.5019 266.622 24.6022 266.545 24.7276ZM273.99 33.908C273.018 34.5351 272.199 35.0367 272.148 35.0367C272.097 35.0367 271.329 35.5133 270.434 36.0902C268.029 37.6705 267.85 37.7708 267.21 38.0467C266.877 38.1972 266.647 38.448 266.724 38.6236C266.801 38.8494 270.945 38.9246 286.117 38.9246H305.408L307.199 37.7708C310.192 35.8394 311.292 35.1622 311.548 35.0367C312.725 34.4598 314.465 33.1806 314.337 33.005C314.26 32.8796 306.278 32.7793 294.969 32.7793H275.73L273.99 33.908Z" fill="black" style="fill:black;fill-opacity:1;"/>
</svg>
